<?xml version="1.0" encoding="UTF-8"?>
<svg xmlns="http://www.w3.org/2000/svg" xmlns:xlink="http://www.w3.org/1999/xlink" width="1000pt" height="1000pt" viewBox="0 0 1000 1000">
<g id="surface1">
<path style=" stroke:none;fill-rule:evenodd;fill:rgb(25.882353%,54.509804%,79.215686%);fill-opacity:1;" d="M 125 218.757812 L 125 476.585938 C 146.546875 480.960938 167.40625 487.195312 187.5 494.945312 L 187.5 281.257812 L 812.5 281.257812 L 812.5 718.757812 L 411.296875 718.757812 C 419.0625 738.851562 425.296875 759.710938 429.671875 781.257812 L 875 781.257812 L 875 218.757812 Z M 125 218.757812 "/>
<path style=" stroke:none;fill-rule:evenodd;fill:rgb(25.882353%,54.509804%,79.215686%);fill-opacity:1;" d="M 234.375 328.132812 L 234.375 516.648438 C 299.765625 552.492188 353.765625 606.492188 389.609375 671.882812 L 765.625 671.882812 L 765.625 328.132812 Z M 234.375 328.132812 "/>
<path style=" stroke:none;fill-rule:nonzero;fill:rgb(25.882353%,54.509804%,79.215686%);fill-opacity:1;" d="M 78.125 738.46875 L 78.125 828.125 L 167.765625 828.125 C 156.46875 784.25 122 749.796875 78.125 738.46875 "/>
<path style=" stroke:none;fill-rule:nonzero;fill:rgb(25.882353%,54.509804%,79.215686%);fill-opacity:1;" d="M 78.125 627.324219 L 78.125 690.480469 C 147.96875 703.324219 202.921875 758.292969 215.78125 828.136719 L 278.9375 828.136719 C 264.984375 723.761719 182.515625 641.277344 78.125 627.324219 "/>
<path style=" stroke:none;fill-rule:nonzero;fill:rgb(25.882353%,54.509804%,79.215686%);fill-opacity:1;" d="M 78.125 517.113281 L 78.125 579.957031 C 208.46875 594.394531 311.875 697.785156 326.296875 828.128906 L 389.140625 828.128906 C 374.28125 663.253906 243.03125 531.988281 78.125 517.113281 "/>
</g>
</svg>
