<?xml version="1.0" encoding="utf-8"?>
<!-- Generator: Adobe Illustrator 18.1.1, SVG Export Plug-In . SVG Version: 6.00 Build 0)  -->
<!DOCTYPE svg PUBLIC "-//W3C//DTD SVG 1.1//EN" "http://www.w3.org/Graphics/SVG/1.1/DTD/svg11.dtd">
<svg version="1.1" id="Layer_1" xmlns="http://www.w3.org/2000/svg" xmlns:xlink="http://www.w3.org/1999/xlink" x="0px" y="0px"
	 viewBox="694 -604 2000 2000" enable-background="new 694 -604 2000 2000" xml:space="preserve">
<g id="surface1">
	<path fill="#4C96D1" d="M1069.3,896V771l227.6,145.5l366.2-320.3V1271L1069.3,896z M722.5,519.9l346.8-311.4l560.9,359.6
		l-333.4,289.2L722.5,519.9z M1069.3,146l-375-288.8L1256.8-479l406.2,281.2L1069.3,146z M2319.3,896l-593.8,375V596.2l365.8,316.4
		L2319.3,771V896z M2091.3,857.4l-333.4-289.2l561.4-359.6l346.2,311.4L2091.3,857.4z M2319.3,146l-593.8-343.8L2131.8-479
		l561.9,336.2L2319.3,146z"/>
</g>
</svg>
