<?xml version="1.0" encoding="utf-8"?>
<!-- Generator: Adobe Illustrator 18.1.1, SVG Export Plug-In . SVG Version: 6.00 Build 0)  -->
<!DOCTYPE svg PUBLIC "-//W3C//DTD SVG 1.1//EN" "http://www.w3.org/Graphics/SVG/1.1/DTD/svg11.dtd">
<svg version="1.1" id="Layer_1" xmlns="http://www.w3.org/2000/svg" xmlns:xlink="http://www.w3.org/1999/xlink" x="0px" y="0px"
	 viewBox="694 -603.5 2000 2000" enable-background="new 694 -603.5 2000 2000" xml:space="preserve">
<g id="surface1">
	<path fill="#FFEE93" d="M1291.1,16.6c-38.6-102.9-119.8-210.9-119.8-312.5c3.6-230.3,314.1-206.9,515.7-206.9
		c212.8,0,529.7-23.4,529.7,206.9c0,106.5-80,207.2-119.7,312.4L1291.1,16.6z"/>
	<path fill="#AFAFAF" d="M1486.4,888.8c0,301.6,0.6,309.5,0.6,309.5c0,66.5,105.9,98.2,200,98.2c104.1,0,228-27.4,228-105.2V887.8
		L1486.4,888.8z"/>
	<path fill="#E2E2E2" d="M1290.6,16.3c803.3,0,806.8,0,806.8,0c-127.5,233.8-93.5,513.3-119.3,796.2c-19.9,55-25.7,60.8-80.7,80.7
		c-133.3-1.2-266.6-2.3-399.9-3.5c-64.3-3.5-69-10.5-87.7-73.7C1387.6,542.4,1419.8,240,1290.6,16.3z"/>
	<path fill="#666666" d="M1789.2,664.3v-18.8c24.5-0.4,25.5-0.7,33.5-0.5c12.4,0.3,19.9,3.9,25.3,9.3c5.2,5.3,9.3,13.3,9.1,24.9
		c-0.1,6.7-4.3,31.4-34.2,32.9c-3.5,0.3-11.6,0-16.7,0.2l5.1-19.3c11.9,1,21.3-2.8,21.8-14c0.5-12.6-10.6-16.6-21.8-14.7
		L1789.2,664.3"/>
	<path fill="#666666" d="M1811.3,730.5l-22.1,0v-70.2l22.1,0.1V730.5"/>
	<path fill="#666666" d="M1890.6,675.5l18.1,6.5c12.1,4.8,14.6,14.4,14.5,22.8c-0.3,19.3-15.7,26.5-28,27.6
		c-14,1.2-24.8-1.2-28.4-1.7v-21c11.1,3.4,23.9,3.2,28.3,1.5c3.3-1.3,5.8-3.2,5.6-5.8c-0.1-1.4-0.2-3.2-4.4-4.9l-16.7-6.1
		c-10.7-3.9-14.9-14.1-14.4-23.1c0.9-18.3,15.6-27.6,30.2-27.1c4.5,0.2,10.6,0.1,19.4,1.3v20.8c-9.9-2.3-14.6-2.3-19.7-1.6
		c-5.7,0.7-8.3,3.7-8.2,6.8C1887.1,672.9,1888.7,674.6,1890.6,675.5"/>
	<path fill="#666666" d="M1580.6,677.2h23.8l0-31.6h22.1v84.9h-22.1v-34.1h-23.8l0,34.1h-22.1v-84.9h22.1L1580.6,677.2"/>
	<path fill="#666666" d="M1647.3,645.6h22.1v84.9h-22.1V645.6z"/>
	<path fill="#666666" d="M1746,645.6h22.1v84.9H1746V645.6z"/>
	<path fill="#666666" d="M1712.3,711.2h22.8v19.3l-44.9,0v-84.9h22.1V711.2"/>
	<path fill="#666666" d="M1479.8,664.3v-18.8c24.5-0.4,25.5-0.7,33.5-0.5c12.4,0.3,19.9,3.9,25.3,9.3c5.2,5.3,9.3,13.3,9.1,24.9
		c-0.1,6.7-4.3,31.4-34.2,32.9c-3.5,0.3-11.3,0-16.5,0.2l4.8-19.3c11.9,1,21.3-2.8,21.8-14c0.5-12.6-10.6-16.6-21.8-14.7
		L1479.8,664.3"/>
	<path fill="#666666" d="M1501.9,730.5l-22.1,0v-68.8l22.1,0.1L1501.9,730.5"/>
</g>
</svg>
