<?xml version="1.0" encoding="UTF-8" standalone="no"?>
<svg width="48px" height="44px" viewBox="0 0 48 44" version="1.1" xmlns="http://www.w3.org/2000/svg" xmlns:xlink="http://www.w3.org/1999/xlink" xmlns:sketch="http://www.bohemiancoding.com/sketch/ns">
    <!-- Generator: Sketch 3.3.2 (12043) - http://www.bohemiancoding.com/sketch -->
    <title>meshblu-shape</title>
    <desc>Created with Sketch.</desc>
    <defs></defs>
    <g id="Page-1" stroke="none" stroke-width="1" fill="none" fill-rule="evenodd" sketch:type="MSPage">
        <g id="1432944471_02" sketch:type="MSLayerGroup" transform="translate(1.000000, 1.000000)" stroke-width="2">
            <g id="Group" sketch:type="MSShapeGroup">
                <path d="M25,18.6 L32.8,10.8" id="Shape" stroke="#010101"></path>
                <path d="M10.4,28.3 L18,24" id="Shape" stroke="#010101"></path>
                <path d="M34.6,21.8 L25.1,21.8" id="Shape" stroke="#010101"></path>
                <path d="M22.5,24.7 L25.7,36.4" id="Shape" stroke="#010101"></path>
                <path d="M15.4,10.8 L19.3,17.5" id="Shape" stroke="#010101"></path>
                <circle id="Oval" stroke="#010101" fill="#6AB840" cx="12.9" cy="5.9" r="5.4"></circle>
                <circle id="Oval" stroke="#010101" fill="#6AB840" cx="40.1" cy="21.8" r="5.4"></circle>
                <path d="M17.3,20.6 L5.9,17.5" id="Shape" stroke="#010101"></path>
                <path d="M4.1,19.8 C5.59116882,19.8 6.8,18.5911688 6.8,17.1 C6.8,15.6088312 5.59116882,14.4 4.1,14.4 C2.60883118,14.4 1.4,15.6088312 1.4,17.1 C1.4,18.5911688 2.60883118,19.8 4.1,19.8 Z" id="Oval" stroke="#010101" fill="#0E5491"></path>
                <circle id="Oval" stroke="#010101" fill="#0E5491" cx="34.7" cy="8.9" r="2.7"></circle>
                <circle id="Oval" stroke="#010101" fill="#0E5491" cx="26.5" cy="38.8" r="2.7"></circle>
                <path d="M5.9,36.1 C8.88233765,36.1 11.3,33.6823376 11.3,30.7 C11.3,27.7176624 8.88233765,25.3 5.9,25.3 C2.91766235,25.3 0.5,27.7176624 0.5,30.7 C0.5,33.6823376 2.91766235,36.1 5.9,36.1 Z" id="Oval" stroke="#010101" fill="#6AB840"></path>
                <path d="M21.2,24.9 C23.3539105,24.9 25.1,23.1539105 25.1,21 C25.1,18.8460895 23.3539105,17.1 21.2,17.1 C19.0460895,17.1 17.3,18.8460895 17.3,21 C17.3,23.1539105 19.0460895,24.9 21.2,24.9 Z" id="Oval" stroke="#000000" fill="#0E5491"></path>
            </g>
        </g>
    </g>
</svg>