<?xml version="1.0" encoding="UTF-8" standalone="no"?>
<!-- Created with Inkscape (http://www.inkscape.org/) -->

<svg
   xmlns:dc="http://purl.org/dc/elements/1.1/"
   xmlns:cc="http://creativecommons.org/ns#"
   xmlns:rdf="http://www.w3.org/1999/02/22-rdf-syntax-ns#"
   xmlns:svg="http://www.w3.org/2000/svg"
   xmlns="http://www.w3.org/2000/svg"
   xmlns:sodipodi="http://sodipodi.sourceforge.net/DTD/sodipodi-0.dtd"
   xmlns:inkscape="http://www.inkscape.org/namespaces/inkscape"
   id="svg3390"
   version="1.1"
   inkscape:version="0.91 r13725"
   width="167.27069"
   height="168.75"
   viewBox="0 0 167.27069 168.75"
   sodipodi:docname="ms-azure-ml.svg">
  <metadata
     id="metadata3396">
    <rdf:RDF>
      <cc:Work
         rdf:about="">
        <dc:format>image/svg+xml</dc:format>
        <dc:type
           rdf:resource="http://purl.org/dc/dcmitype/StillImage" />
        <dc:title></dc:title>
      </cc:Work>
    </rdf:RDF>
  </metadata>
  <defs
     id="defs3394" />
  <sodipodi:namedview
     pagecolor="#ffffff"
     bordercolor="#666666"
     borderopacity="1"
     objecttolerance="10"
     gridtolerance="10"
     guidetolerance="10"
     inkscape:pageopacity="0"
     inkscape:pageshadow="2"
     inkscape:window-width="2560"
     inkscape:window-height="1391"
     id="namedview3392"
     showgrid="false"
     inkscape:zoom="3.6296296"
     inkscape:cx="48.242945"
     inkscape:cy="93.017514"
     inkscape:window-x="0"
     inkscape:window-y="0"
     inkscape:window-maximized="1"
     inkscape:current-layer="svg3390"
     fit-margin-top="0"
     fit-margin-left="0"
     fit-margin-right="0"
     fit-margin-bottom="0" />
  <g
     id="g3400"
     transform="translate(158.99604,66.673474)">
    <path
       style="fill:#d7e7f3"
       d="m -149.50231,99.02965 c -3.29547,-4.4334 -7.50133,-11.92109 -8.81923,-15.70085 -0.8928,-2.56057 -0.89794,-4.00598 -0.0234,-6.56477 0.61682,-1.80469 11.57342,-24.27561 24.348,-49.93538 l 23.22651,-46.654138 0,-13.56238 c 0,-15.03542 0.48183,-13.953058 -6.5625,-14.741894 -2.23909,-0.250738 -2.35625,-0.575937 -2.6237,-7.282667 -0.15398,-3.861115 -0.0405,-7.974396 0.25223,-9.140625 l 0.53219,-2.120416 43.944338,0 c 39.20665,0 44.00568,0.159876 44.51339,1.482926 0.73845,1.924359 0.73845,13.859788 0,15.784149 -0.36037,0.939098 -1.70747,1.482925 -3.67333,1.482925 -6.14129,0 -6.07012,-0.166084 -6.07012,14.166408 l 0,13.028303 24.07075,48.043269 c 28.17028,56.22561 27.05991,52.52923 19.5010999,64.91827 -2.51674997,4.125 -5.2289,8.01393 -6.027,8.64206 -1.11108,0.87446 -18.1900399,1.14905 -72.8877599,1.17188 l -71.436668,0.0298 -2.26482,-3.04688 z m 44.6179,-55.07812 c 10.713868,-21.39844 20.181218,-39.4335945 21.038558,-40.0781255 1.0651,-0.800715 5.51059,-1.171875 14.03588,-1.171875 6.86238,0 12.47706,-0.220302 12.47706,-0.48956 0,-0.269258 -1.6875,-3.845831 -3.75,-7.94794 l -3.75,-7.4583795 0,-16.773145 0,-16.773145 -3.51562,-0.581097 c -4.47035,-0.738902 -12.26224,-0.744533 -15,-0.01084 -2.08533,0.558846 -2.10938,0.751832 -2.10938,16.925995 l 0,16.360704 -24.374998,46.314428 c -13.40625,25.47294 -24.375,46.80788 -24.375,47.41098 0,1.97343 3.21526,3.64341 6.5625,3.40852 l 3.28125,-0.23027 19.47975,-38.90625 z"
       id="path3414"
       inkscape:connector-curvature="0" />
    <path
       style="fill:#b1d1e9"
       d="m -147.50114,100.44173 c -4.19485,-4.90918 -10.49316,-16.87697 -10.48741,-19.9277 0.005,-2.40921 6.40441,-16.0576 24.08092,-51.35512 l 24.07472,-48.07387 0,-14.504254 0,-14.504256 -2.87413,0 c -5.84757,0 -6.50087,-1.039667 -6.50087,-10.345485 l 0,-8.404515 43.493448,0 c 38.7955,0 43.55492,0.160178 44.0625,1.482926 0.31298,0.815609 0.56905,4.622926 0.56905,8.460703 0,6.627563 -0.12069,7.023668 -2.40478,7.892075 -1.32263,0.502863 -3.64294,0.914296 -5.15625,0.914296 l -2.75147,0 -0.007,13.828125 -0.008,13.828125 24.53847,49.19096 c 13.4961699,27.05503 24.5252199,50.25816 24.5090199,51.5625 -0.0162,1.30435 -2.55181,6.59029 -5.63468,11.74654 l -5.60521,9.375 -71.2460099,0.2402 c -66.962148,0.22575 -71.330598,0.14119 -72.652878,-1.40625 z M -123.6677,82.6234 c 0.80069,-0.90234 10.02663,-18.80642 20.50209,-39.78685 14.139228,-28.31827 19.538088,-38.2783555 20.955118,-38.6590725 1.04986,-0.282064 7.28774,-0.518606 13.86196,-0.525646 7.52951,-0.0081 11.95312,-0.368414 11.95312,-0.973706 0,-0.528497 -1.58203,-4.008965 -3.51562,-7.734375 l -3.51563,-6.7734705 -0.46875,-17.8125 -0.46875,-17.8125 -10.95851,-0.263633 -10.9585,-0.263632 -0.29591,17.607382 -0.2959,17.607383 -24.136218,45.55899 c -13.27491,25.05745 -24.13621,46.23274 -24.13621,47.05621 0,3.84454 8.66894,5.94077 11.47771,2.77542 z"
       id="path3412"
       inkscape:connector-curvature="0" />
    <path
       style="fill:#98c3e3"
       d="m -152.42331,91.66515 c -3.38778,-5.72625 -6.1596,-10.79031 -6.1596,-11.25347 0,-0.46315 11.19057,-23.2201 24.86793,-50.571 l 24.86792,-49.728898 -0.25855,-14.252001 -0.25855,-14.252001 -4.03544,-0.290774 c -2.21949,-0.159926 -4.19917,-0.792739 -4.39929,-1.40625 -0.20012,-0.613512 -0.49667,-4.595945 -0.65901,-8.849851 l -0.29516,-7.734375 43.401508,0 43.4015,0 -0.26955,8.671875 -0.26956,8.671875 -4.20335,0.298979 c -2.31184,0.164439 -4.52023,0.797251 -4.90752,1.40625 -0.38729,0.608999 -0.71063,6.894306 -0.71853,13.967348 l -0.0143,12.860075 25.30376,50.651348 25.3037599,50.65133 -6.31938,10.75136 -6.31939,10.75136 -70.9497699,0.0341 -70.949828,0.0341 -6.1596,-10.41138 z m 48.33713,-46.30737 c 10.637258,-21.14063 19.829668,-38.9648445 20.427578,-39.6093755 0.77308,-0.833355 5.00327,-1.171875 14.6439,-1.171875 10.22474,0 13.5548,-0.288029 13.54872,-1.171875 -0.005,-0.644531 -1.7974,-4.757813 -3.98438,-9.140625 l -3.9763,-7.9687495 -0.46875,-17.34375 -0.46875,-17.34375 -10.70602,-0.266568 c -7.93445,-0.197558 -10.90381,0.04514 -11.47002,0.9375 -0.4202,0.662238 -0.77046,8.54369 -0.77835,17.514338 l -0.0144,16.310269 -17.936058,34.314731 c -9.86483,18.8731 -20.83358,39.68067 -24.375,46.23905 -3.54142,6.55837 -6.43894,12.4314 -6.43894,13.05118 0,2.9124 3.14064,4.6433 7.91824,4.36399 l 4.73801,-0.27699 19.34048,-38.4375 z"
       id="path3410"
       inkscape:connector-curvature="0" />
    <path
       style="fill:#87b9df"
       d="m -147.5479,99.4984 c -1.28406,-2.56661 -8.35139,-14.38721 -10.25813,-17.15744 -0.78863,-1.14577 4.34301,-12.08526 24.18761,-51.56251 l 25.18861,-50.10817 0.002,-14.33032 c 0.002,-15.955738 -0.0542,-16.098462 -6.32655,-16.124074 l -3.51565,-0.01436 0,-8.4375 0,-8.4375 43.161498,0 43.1615,0 -0.27088,8.203125 -0.27087,8.203125 -3.75,0.501615 c -6.21452,0.831279 -6.09853,0.520604 -6.0462,16.194338 l 0.0475,14.241551 25.17951,50.15625 c 21.0523999,41.93528 24.9848699,50.38674 23.9920399,51.5625 -0.65311,0.77344 -3.61976,5.51953 -6.59255997,10.54687 l -5.40509003,9.14063 -70.5970799,0 -70.597078,0 -1.28982,-2.57813 z m 43.84689,-53.96401 c 10.849108,-21.55913 20.341298,-39.5878245 21.093748,-40.0637785 0.75246,-0.475953 7.14398,-0.87183 14.2034,-0.879726 7.05941,-0.0079 13.03272,-0.333794 13.27401,-0.724218 0.24129,-0.390424 -1.39953,-4.50370495 -3.64628,-9.140625 l -4.08502,-8.4307625 -0.0484,-17.07639 c -0.0571,-20.165897 0.68186,-19.01736 -12.23586,-19.01736 -12.89523,0 -12.1875,-1.07364 -12.1875,18.488611 l 0,16.547642 -23.571698,45.059997 c -12.96444,24.783 -23.8677,45.48187 -24.22947,45.9975 -1.8853,2.68708 -1.70677,4.31033 0.72423,6.58492 2.07632,1.94271 3.32353,2.33309 6.76444,2.11723 l 4.21875,-0.26465 19.72565,-39.19839 z"
       id="path3408"
       inkscape:connector-curvature="0" />
    <path
       style="fill:#6baad9"
       d="m -146.39541,101.06685 c 0,-0.85168 -7.88193,-14.43083 -11.53711,-19.87639 -0.82672,-1.23166 -0.84205,-1.84405 -0.0587,-2.34375 0.58326,-0.37203 12.07935,-22.7178 25.54688,-49.65727 l 24.48641,-48.980835 0,-13.878538 c 0,-9.544417 -0.35133,-14.229862 -1.125,-15.003537 -0.61875,-0.61875 -2.68299,-1.125 -4.5872,-1.125 -4.23718,0 -4.6003,-0.783075 -4.6003,-9.920426 l 0,-6.954574 42.908838,0 42.90885,0 -0.30876,7.265625 c -0.16982,3.996094 -0.48119,7.792969 -0.69193,8.4375 -0.21805,0.666922 -1.93089,1.171875 -3.97508,1.171875 -1.97556,0 -4.09817,0.50625 -4.71692,1.125 -0.76986,0.769861 -1.125,5.347252 -1.125,14.500138 l 0,13.375137 24.84375,49.732135 c 13.6640599,27.35268 24.8429399,50.46433 24.8419599,51.35924 -9.4e-4,0.8949 -2.1598,5.21304 -4.79737,9.59585 -2.63757,4.38281 -5.15757,8.91797 -5.6,10.07812 l -0.80443,2.10938 -70.8044499,0 c -49.952418,0 -70.804458,-0.29736 -70.804458,-1.00968 z m 43.35014,-55.47469 19.931108,-39.6093805 14.05144,-0.46875 c 12.11908,-0.404287 14.09243,-0.682845 14.34948,-2.025566 0.16392,-0.856249 -1.5186,-5.074999 -3.73894,-9.375 l -4.03698,-7.8181835 -0.46875,-17.8125 -0.46875,-17.8125 -11.11703,-0.265004 c -7.39482,-0.176275 -11.55393,0.09758 -12.42188,0.817917 -1.02644,0.85187 -1.30484,4.686998 -1.30484,17.97499 l 0,16.89207 -11.849168,22.6025125 c -6.51704,12.4313845 -17.48579,33.2323345 -24.375,46.2243145 -6.88921,12.992 -12.52583,24.14449 -12.52583,24.78333 0,0.63884 0.91729,2.13793 2.03842,3.33132 1.63493,1.7403 3.02488,2.1698 7.02201,2.1698 l 4.98359,0 19.93112,-39.60937 z"
       id="path3406"
       inkscape:connector-curvature="0" />
    <path
       style="fill:#5aa1d6"
       d="m -146.20349,100.8633 c 0.15226,-0.67377 -2.14895,-5.31322 -5.1138,-10.3099 -2.96484,-4.99667 -5.39062,-9.49935 -5.39062,-10.00596 0,-0.50659 11.17969,-23.32665 24.84375,-50.71122 l 24.84375,-49.790123 0,-13.917819 c 0,-15.83456 -0.40478,-16.864248 -6.62947,-16.864248 l -3.68303,0 0,-6.485825 c 0,-3.567203 -0.25607,-7.15314 -0.56905,-7.968749 -0.51379,-1.338907 3.59312,-1.482926 42.287798,-1.482926 38.69468,0 42.80159,0.144019 42.2878,1.482926 -0.31298,0.815609 -0.56905,4.401546 -0.56905,7.968749 l 0,6.485825 -3.5625,0 c -1.95938,0 -4.06875,0.50625 -4.6875,1.125 -0.77949,0.779494 -1.125,5.647046 -1.125,15.849208 l 0,14.724207 24.88435,49.804655 24.8843599,49.80466 -5.67001997,9.33288 c -3.11852003,5.13308 -5.56257003,9.86618 -5.43123003,10.51801 0.19044,0.94517 -14.1487599,1.23378 -70.8192899,1.42541 -58.101968,0.19646 -71.007598,0.0169 -70.781248,-0.98476 z m 43.64545,-54.80239 19.931108,-39.6093805 12.93658,0 c 9.72874,0 13.38783,-0.331678 14.75638,-1.337592 1.76584,-1.297926 1.68775,-1.604118 -2.63331,-10.324899 l -4.45313,-8.9873035 0,-17.298368 c 0,-16.142899 -0.12112,-17.363192 -1.81337,-18.268852 -2.67529,-1.431776 -22.09015,-1.26195 -23.30667,0.20387 -0.56633,0.682382 -1.1226,8.439129 -1.32785,18.515625 l -0.35322,17.34127 -22.345268,42.1875 c -12.2899,23.20313 -23.43044,44.39617 -24.75676,47.09564 l -2.41148,4.90813 2.74641,2.86664 c 2.50445,2.61409 3.20246,2.84243 7.92294,2.59186 l 5.17652,-0.27477 19.93112,-39.60937 z"
       id="path3404"
       inkscape:connector-curvature="0" />
    <path
       style="fill:#549ed5"
       d="m -145.87717,101.2191 c -0.29146,-0.47158 -0.16349,-0.99892 0.28437,-1.17187 0.44786,-0.17295 -1.65889,-4.46729 -4.68166,-9.54299 -3.02277,-5.0757 -5.49595,-9.64862 -5.49595,-10.16204 0,-0.51343 11.02168,-22.93871 24.49262,-49.83396 l 24.49262,-48.90046 -0.0452,-15.349479 c -0.0249,-8.446613 -0.44833,-15.752593 -0.9416,-16.245858 -0.49301,-0.493009 -2.63496,-1.129572 -4.75989,-1.414586 l -3.86352,-0.518206 0,-6.439061 c 0,-3.667707 -0.4035,-6.43906 -0.9375,-6.43906 -0.51563,0 -0.9375,-0.421875 -0.9375,-0.9375 0,-0.611198 14.77584,-0.9375 42.452518,-0.9375 l 42.45252,0 -0.32369,6.796875 c -0.17803,3.738281 -0.48576,7.300186 -0.68386,7.915344 -0.19808,0.615159 -2.38652,1.247971 -4.8632,1.40625 l -4.50304,0.287781 -0.2592,15.46875 -0.25921,15.46875 24.95453,49.93967 24.9545199,49.93968 -4.19082,6.77907 c -5.48318,8.86961 -7.06565,12.14675 -6.55556,13.57595 0.3322,0.93081 -14.0507599,1.17188 -69.9170599,1.17188 -41.500018,0 -70.552538,-0.35152 -70.865208,-0.85743 z m 23.27446,-15.34986 c 0.90809,-0.66401 10.4179,-18.69916 21.13292,-40.07813 l 19.481838,-38.8708305 14.42576,-0.46875 c 12.46187,-0.404935 14.46629,-0.680475 14.72356,-2.023981 0.1638,-0.855377 -1.62416,-5.38210295 -3.97324,-10.059392 l -4.27104,-8.5041605 -0.0144,-17.128108 c -0.007,-9.420459 -0.40807,-17.750691 -0.88926,-18.511624 -0.69253,-1.095128 -3.27882,-1.388254 -12.40752,-1.40625 -6.34294,-0.0125 -12.2709,0.280432 -13.17324,0.650968 -1.48001,0.607743 -1.64063,2.390263 -1.64063,18.206876 l 0,17.533174 -7.84364,14.60562255 C -123.34014,48.7666 -139.00189,79.63914 -138.44189,81.40356 c 1.0666,3.36053 5.06384,5.67297 9.80623,5.67297 2.41003,0 5.12486,-0.54328 6.03295,-1.20729 z"
       id="path3402"
       inkscape:connector-curvature="0" />
  </g>
</svg>
