<?xml version="1.0" encoding="utf-8"?>
<!-- Generator: Adobe Illustrator 20.0.0, SVG Export Plug-In . SVG Version: 6.00 Build 0)  -->
<svg version="1.1" id="Layer_1" xmlns="http://www.w3.org/2000/svg" xmlns:xlink="http://www.w3.org/1999/xlink" x="0px" y="0px"
	 viewBox="0 0 229 219.2" style="enable-background:new 0 0 229 219.2;" xml:space="preserve">
<style type="text/css">
	.st0{fill:#00B0F3;}
</style>
<title>skype_for_business</title>
<path class="st0" d="M215.9,127.5c1-5.9,1.6-11.9,1.6-17.9c0-57-46.3-103.2-103.3-103.1c-5.9,0-11.9,0.5-17.7,1.5
	C67.1-8.7,29.6,1.5,12.9,31c-10.7,18.8-10.7,41.9,0,60.7C3,147.8,40.6,201.3,96.7,211.2c11.8,2.1,23.8,2.1,35.6,0
	c29.4,16.8,66.8,6.5,83.6-22.9C226.7,169.4,226.7,146.3,215.9,127.5 M162.7,203.6c-7.9,0-15.7-2.1-22.6-6l-4.9-2.8l-5.6,1
	c-47.6,8.4-93-23.4-101.4-71c-1.8-10-1.8-20.3,0-30.4l1-5.6L26.4,84c-12.5-21.9-4.9-49.8,17-62.4c14-8,31.2-8,45.3,0l4.9,2.8l5.6-1
	c5-0.9,10.1-1.3,15.2-1.3c48.3,0,87.5,39.2,87.5,87.6c0,5.1-0.4,10.1-1.3,15.1l-1,5.6l2.8,4.9c12.5,21.9,4.8,49.8-17.1,62.3
	C178.4,201.5,170.7,203.5,162.7,203.6"/>
<path class="st0" d="M133.1,99.8l-23.2-5.2c-8.8-2-18.7-4.9-18.7-13.3S98,67,110.9,67c25.9,0,23.7,18,36.6,18
	c6.8,0,12.6-3.8,12.6-10.7c0-16.1-25.7-28-47.4-28c-23.5,0-48.1,9.7-48.1,36.5c0,12.9,4.4,26.8,29.6,33.2l31.3,7.9
	c9.4,2.4,12.2,7.7,12.2,12.6c0,8.1-8.4,16.6-22.8,16.6c-28.1,0-24.1-22.4-39.2-22.4c-6.8,0-12,4.6-12,11.3
	c0,13.1,16.1,30.9,51.2,30.9c33.4,0,50.4-16.8,50.4-38.6C165.3,120.3,158.5,105.5,133.1,99.8"/>
</svg>
