<?xml version="1.0" encoding="UTF-8" standalone="no"?>
<svg width="451px" height="452px" viewBox="0 0 451 452" version="1.1" xmlns="http://www.w3.org/2000/svg" xmlns:xlink="http://www.w3.org/1999/xlink" xmlns:sketch="http://www.bohemiancoding.com/sketch/ns">
    <!-- Generator: Sketch 3.3.3 (12072) - http://www.bohemiancoding.com/sketch -->
    <title>Group</title>
    <desc>Created with Sketch.</desc>
    <defs></defs>
    <g id="Page-1" stroke="none" stroke-width="1" fill="none" fill-rule="evenodd" sketch:type="MSPage">
        <g id="Group" sketch:type="MSLayerGroup">
            <path d="M305.52857,326.39493 C299.92857,327.19493 294.92857,329.59493 289.62857,331.39493 C266.92857,339.09493 244.32857,346.99493 221.62857,354.79493 C221.42857,354.69493 221.22857,354.59493 221.02857,354.59493 C220.02857,351.39493 219.22857,348.19493 218.12857,345.09493 C211.22857,324.09493 204.22857,302.99493 197.22857,281.99493 C208.52857,277.39493 220.22857,273.99493 231.72857,269.89493 C248.02857,264.19493 264.32857,258.69493 280.52857,252.99493 C288.62857,250.29493 296.72857,247.69493 304.72857,244.89493 C321.52857,239.09493 338.42857,233.29493 355.22857,227.49493 C355.52857,227.49493 355.72857,227.59493 356.02857,227.59493 C356.32857,229.09493 356.52857,230.69493 357.02857,232.19493 C361.32857,245.29493 365.82857,258.29493 370.02857,271.39493 C373.12857,280.89493 376.82857,290.29493 379.22857,300.09493 C378.32857,300.59493 377.42857,301.09493 376.42857,301.39493 C355.02857,308.69493 333.72857,315.99493 312.32857,323.39493 C310.12857,324.29493 307.62857,324.79493 305.52857,326.39493 L305.52857,326.39493 Z" id="Shape" fill="#D7123A" sketch:type="MSShapeGroup"></path>
            <path d="M355.32857,227.59493 C338.52857,233.39493 321.62857,239.19493 304.82857,244.99493 C296.82857,247.79493 288.72857,250.39493 280.62857,253.09493 C279.02857,248.19493 277.42857,243.19493 275.82857,238.29493 C268.12857,214.99493 260.32857,191.69493 252.52857,168.39493 C255.92857,166.29493 259.92857,165.49493 263.62857,164.19493 C284.52857,156.89493 305.52857,149.69493 326.42857,142.49493 C326.52857,142.59493 326.72857,142.69493 326.82857,142.79493 C336.32857,170.99493 345.82857,199.29493 355.32857,227.59493 L355.32857,227.59493 Z" id="Shape" fill="#E8A720" sketch:type="MSShapeGroup"></path>
            <path d="M122.52857,306.59493 C115.92857,286.99493 109.22857,267.29493 102.62857,247.69493 C99.72857,239.29493 96.82857,230.89493 93.92857,222.49493 C93.92857,222.19493 93.92857,221.99493 94.02857,221.69493 C95.72857,221.89493 97.12857,221.09493 98.62857,220.59493 C121.82857,212.69493 145.02857,204.79493 168.22857,196.89493 C168.42857,196.89493 168.62857,196.99493 168.82857,196.99493 C169.12857,197.89493 169.32857,198.79493 169.62857,199.69493 C178.72857,226.99493 187.82857,254.29493 196.92857,281.59493 C181.72857,286.79493 166.52857,291.99493 151.32857,297.19493 C141.62857,300.39493 132.02857,303.49493 122.52857,306.59493 L122.52857,306.59493 Z" id="Shape" fill="#3EB891" sketch:type="MSShapeGroup"></path>
            <path d="M168.72857,196.99493 C168.52857,196.99493 168.32857,196.99493 168.12857,196.89493 C168.52857,195.39493 167.72857,193.99493 167.22857,192.69493 C160.22857,171.59493 153.12857,150.49493 146.02857,129.29493 C145.52857,127.69493 144.62857,126.09493 144.92857,124.29493 C145.32857,123.19493 146.42857,123.19493 147.22857,122.99493 C173.52857,114.09493 199.82857,105.29493 226.12857,96.39493 C226.72857,96.19493 227.42857,96.19493 228.02857,95.99493 C236.02857,119.99493 244.02857,143.89493 252.12857,167.89493 C228.52857,175.99493 204.92857,184.09493 181.32857,192.19493 C177.02857,193.79493 172.92857,195.49493 168.72857,196.99493 L168.72857,196.99493 Z" id="Shape" fill="#6EC9DB" sketch:type="MSShapeGroup"></path>
            <path d="M305.52857,326.39493 C307.62857,324.89493 310.12857,324.29493 312.42857,323.49493 C333.82857,316.19493 355.12857,308.89493 376.52857,301.49493 C377.52857,301.19493 378.42857,300.59493 379.32857,300.19493 C379.52857,300.29493 379.72857,300.29493 379.82857,300.39493 C383.22857,312.79493 387.82857,324.89493 391.82857,337.09493 C394.52857,345.39493 397.42857,353.69493 396.32857,362.79493 C394.12857,381.09493 380.62857,394.79493 361.62857,397.59493 C345.32857,399.89493 327.62857,389.99493 321.32857,373.69493 C315.52857,358.09493 310.82857,342.09493 305.52857,326.39493 L305.52857,326.39493 Z" id="Shape" fill="#E8A721" sketch:type="MSShapeGroup"></path>
            <path d="M221.02857,354.49493 C221.22857,354.49493 221.42857,354.59493 221.62857,354.69493 C225.82857,369.39493 231.12857,383.69493 235.92857,398.19493 C239.22857,408.39493 239.12857,418.29493 234.72857,428.09493 C228.32857,442.49493 213.72857,451.59493 197.62857,451.19493 C182.32857,450.79493 167.82857,440.89493 162.52857,426.39493 C157.42857,412.39493 152.92857,398.19493 148.12857,384.09493 C147.72857,382.89493 147.12857,381.69493 146.62857,380.49493 C146.62857,380.29493 146.62857,380.09493 146.72857,379.89493 C148.12857,380.19493 149.32857,379.49493 150.52857,378.99493 C168.32857,372.89493 186.12857,366.89493 203.92857,360.59493 C209.72857,358.79493 215.62857,357.39493 221.02857,354.49493 L221.02857,354.49493 Z" id="Shape" fill="#3EB891" sketch:type="MSShapeGroup"></path>
            <path d="M221.02857,354.49493 C215.62857,357.39493 209.72857,358.79493 204.02857,360.79493 C186.32857,367.09493 168.42857,373.09493 150.62857,379.19493 C149.42857,379.59493 148.22857,380.39493 146.82857,380.09493 C146.42857,379.09493 146.02857,378.09493 145.72857,377.09493 C137.92857,353.79493 130.12857,330.59493 122.22857,307.29493 C122.22857,307.09493 122.32857,306.89493 122.42857,306.69493 C132.02857,303.49493 141.62857,300.39493 151.12857,297.19493 C166.32857,292.09493 181.52857,286.79493 196.72857,281.59493 C196.92857,281.59493 197.12857,281.79493 197.22857,281.89493 C204.22857,302.89493 211.12857,323.89493 218.12857,344.99493 C219.22857,348.09493 220.12857,351.29493 221.02857,354.49493 L221.02857,354.49493 Z" id="Shape" fill="#371139" sketch:type="MSShapeGroup"></path>
            <path d="M144.92857,124.39493 C144.62857,126.19493 145.52857,127.79493 146.02857,129.39493 C153.12857,150.49493 160.22857,171.59493 167.22857,192.79493 C167.62857,194.09493 168.52857,195.49493 168.12857,196.99493 C144.92857,204.89493 121.72857,212.79493 98.52857,220.69493 C97.02857,221.19493 95.62857,221.99493 93.92857,221.79493 C88.02857,204.19493 82.02857,186.69493 76.22857,169.09493 C74.02857,162.49493 71.22857,155.99493 70.02857,149.09493 C70.42857,148.99493 70.82857,148.89493 71.22857,148.79493 C95.62857,140.59493 120.02857,132.39493 144.42857,124.19493 C144.42857,124.29493 144.62857,124.29493 144.92857,124.39493 L144.92857,124.39493 Z" id="Shape" fill="#1B937C" sketch:type="MSShapeGroup"></path>
            <path d="M228.22857,95.39493 C222.62857,78.79493 215.42857,62.59493 212.22857,45.39493 C208.52857,25.49493 221.52857,6.69493 241.32857,1.49493 C260.52857,-3.50507 280.62857,6.79493 287.52857,25.59493 C292.72857,39.79493 297.22857,54.29493 302.12857,68.69493 C302.32857,69.29493 302.62857,69.89493 302.92857,70.49493 C302.82857,70.69493 302.82857,70.89493 302.82857,70.99493 C301.12857,71.39493 299.42857,71.79493 297.82857,72.29493 C286.42857,76.09493 275.02857,80.09493 263.52857,83.79493 C251.62857,87.59493 240.12857,92.19493 228.22857,95.39493 L228.22857,95.39493 Z" id="Shape" fill="#E8A821" sketch:type="MSShapeGroup"></path>
            <path d="M144.22857,124.19493 C119.82857,132.39493 95.42857,140.59493 71.02857,148.79493 C70.62857,148.89493 70.22857,148.99493 69.82857,149.09493 C69.62857,148.99493 69.42857,148.99493 69.22857,148.99493 C64.42857,134.59493 59.52857,120.29493 55.02857,105.79493 C47.92857,83.49493 60.62857,60.69493 83.02857,55.09493 C102.32857,50.29493 122.22857,60.69493 129.02857,79.59493 C134.42857,94.39493 139.22857,109.29493 144.22857,124.19493 L144.22857,124.19493 Z" id="Shape" fill="#3EB891" sketch:type="MSShapeGroup"></path>
            <path d="M228.22857,95.39493 C240.12857,92.19493 251.62857,87.59493 263.32857,83.79493 C274.82857,80.09493 286.22857,76.09493 297.62857,72.29493 C299.22857,71.79493 300.92857,71.39493 302.62857,70.99493 C307.12857,84.19493 311.72857,97.49493 316.22857,110.69493 C319.72857,121.19493 323.72857,131.59493 326.52857,142.29493 C305.62857,149.49493 284.62857,156.69493 263.72857,163.99493 C260.02857,165.29493 256.12857,166.19493 252.62857,168.19493 C252.42857,168.09493 252.22857,167.99493 252.12857,167.79493 C244.12857,143.79493 236.12857,119.89493 228.02857,95.89493 C228.02857,95.89493 228.12857,95.69493 228.22857,95.39493 L228.22857,95.39493 Z" id="Shape" fill="#64851C" sketch:type="MSShapeGroup"></path>
            <path d="M378.92857,300.39493 C378.72857,300.29493 378.52857,300.29493 378.42857,300.19493 C376.12857,290.39493 372.32857,281.09493 369.22857,271.49493 C364.92857,258.39493 360.52857,245.39493 356.22857,232.29493 C355.72857,230.79493 355.52857,229.19493 355.22857,227.69493 C370.42857,222.49493 385.62857,216.99493 400.92857,212.29493 C416.32857,207.59493 432.82857,213.09493 442.52857,225.49493 C452.02857,237.49493 453.22857,254.89493 445.52857,268.79493 C440.72857,277.49493 432.22857,281.79493 423.42857,284.99493 C408.72857,290.39493 393.82857,295.29493 378.92857,300.39493 L378.92857,300.39493 Z" id="Shape" fill="#DF1663" sketch:type="MSShapeGroup"></path>
            <path d="M122.32857,307.19493 C130.12857,330.49493 137.92857,353.69493 145.82857,376.99493 C146.12857,377.99493 146.52857,378.99493 146.92857,379.99493 C146.82857,380.19493 146.82857,380.39493 146.82857,380.59493 C133.52857,385.19493 120.22857,389.69493 106.82857,394.19493 C91.52857,399.39493 77.22857,397.89493 65.12857,386.69493 C45.12857,368.09493 51.32857,333.49493 76.82857,322.89493 C91.52857,316.69493 107.02857,312.39493 122.32857,307.19493 L122.32857,307.19493 Z" id="Shape" fill="#DF1663" sketch:type="MSShapeGroup"></path>
            <path d="M69.32857,148.89493 C69.52857,148.89493 69.72857,148.89493 69.92857,148.99493 C71.22857,155.89493 73.92857,162.39493 76.12857,168.99493 C81.92857,186.59493 87.92857,204.09493 93.82857,221.69493 C93.82857,221.99493 93.72857,222.19493 93.72857,222.49493 C79.72857,227.19493 65.82857,232.09493 51.82857,236.69493 C38.72857,240.99493 26.32857,239.79493 15.12857,231.39493 C-4.87143,216.39493 -4.77143,184.99493 15.12857,169.79493 C19.02857,166.89493 23.22857,164.69493 27.72857,163.09493 C40.22857,158.89493 52.72857,154.69493 65.12857,150.49493 C66.62857,150.09493 67.92857,149.49493 69.32857,148.89493 L69.32857,148.89493 Z" id="Shape" fill="#6EC9DB" sketch:type="MSShapeGroup"></path>
            <path d="M326.52857,142.39493 C323.72857,131.69493 319.72857,121.29493 316.22857,110.79493 C311.82857,97.49493 307.22857,84.29493 302.62857,71.09493 C302.62857,70.89493 302.72857,70.69493 302.72857,70.59493 C316.82857,65.89493 330.92857,60.99493 345.02857,56.39493 C367.92857,48.89493 390.92857,61.39493 396.32857,84.09493 C399.82857,98.79493 392.22857,115.09493 377.92857,123.79493 C371.22857,127.79493 363.72857,129.69493 356.42857,132.29493 C346.52857,135.79493 336.62857,139.29493 326.72857,142.79493 C326.72857,142.59493 326.62857,142.49493 326.52857,142.39493 L326.52857,142.39493 Z" id="Shape" fill="#6EC9DB" sketch:type="MSShapeGroup"></path>
        </g>
    </g>
</svg>