<?xml version="1.0" encoding="utf-8"?>
<!-- Generator: Adobe Illustrator 18.1.1, SVG Export Plug-In . SVG Version: 6.00 Build 0)  -->
<!DOCTYPE svg PUBLIC "-//W3C//DTD SVG 1.1//EN" "http://www.w3.org/Graphics/SVG/1.1/DTD/svg11.dtd">
<svg version="1.1" id="Layer_1" xmlns="http://www.w3.org/2000/svg" xmlns:xlink="http://www.w3.org/1999/xlink" x="0px" y="0px"
	 viewBox="694 -604 2000 2000" enable-background="new 694 -604 2000 2000" xml:space="preserve">
<g id="surface1">
	<path d="M1722.5,785.1l190.9-1073.9c182,0,239.4,20,247.7,101.4c0,0,122.1-45.5,183.7-138c-240.3-111.4-481.8-116.4-481.8-116.4
		l-140.9,171.6l0.3,0l-140.9-171.6c0,0-241.5,5-481.8,116.4c61.5,92.5,183.7,138,183.7,138c8.3-81.5,65.7-101.4,246.4-101.6
		L1722.5,785.1z"/>
	<path d="M1722.4-491.4c194.2-1.5,416.6,30,644.2,129.2c30.4-54.8,38.2-78.9,38.2-78.9C2156-539.5,1923-573.2,1722.4-574
		c-200.6,0.9-433.6,34.5-682.5,133c0,0,11.1,29.8,38.2,78.9C1305.7-461.3,1528.1-492.8,1722.4-491.4L1722.4-491.4z"/>
	<path d="M944,1171c4.4,17.1,19.1,34.5,39.4,38.8h61.2l3.1,1.2v154.4h38.2V1211l3.5-1.2h61.3c20.5-5.3,34.9-21.8,39.2-38.8v-0.4H944
		L944,1171L944,1171z"/>
	<path d="M2111,1365.9c19.1-8.1,29.3-22.1,33.2-38.4h-169.6l0.1-156.7l-38,0.1v195.1H2111z"/>
	<path d="M1653.8,1209.2h134.3c20.2-5.9,37.3-21.3,41.4-38.4h-213.4V1286h174.7v40.4l-137,0.1c-21.5,6-39.7,20.4-48.8,39.4l11.1-0.2
		h212.2v-118.1h-174.5L1653.8,1209.2L1653.8,1209.2z"/>
	<path d="M2225.5,1247.9v118h37.8v-78.5H2401v78.5h37.8v-117.7L2225.5,1247.9z"/>
	<path d="M1322.3,1209.6h145.4c20.2-4,35.3-21.8,39.5-39.1h-224.4C1287,1187.7,1302.2,1205.6,1322.3,1209.6"/>
	<path d="M1322.3,1286.7h145.4c20.2-4,35.3-21.8,39.5-39.1h-224.4C1287,1264.8,1302.2,1282.7,1322.3,1286.7"/>
	<path d="M1322.3,1365.9h145.4c20.2-4,35.3-21.8,39.5-39.1h-224.4C1287,1344,1302.2,1361.8,1322.3,1365.9"/>
	<path d="M2259.1,1209.7h145.4c20.2-4,35.2-21.8,39.5-39.1h-224.4C2223.8,1187.9,2239.1,1205.7,2259.1,1209.7"/>
</g>
</svg>
