<?xml version="1.0" encoding="utf-8"?>
<!-- Generator: Adobe Illustrator 18.1.1, SVG Export Plug-In . SVG Version: 6.00 Build 0)  -->
<!DOCTYPE svg PUBLIC "-//W3C//DTD SVG 1.1//EN" "http://www.w3.org/Graphics/SVG/1.1/DTD/svg11.dtd">
<svg version="1.1"
	 id="svg2" xmlns:rdf="http://www.w3.org/1999/02/22-rdf-syntax-ns#" xmlns:svg="http://www.w3.org/2000/svg" xmlns:cc="http://creativecommons.org/ns#" xmlns:dc="http://purl.org/dc/elements/1.1/"
	 xmlns="http://www.w3.org/2000/svg" xmlns:xlink="http://www.w3.org/1999/xlink" x="0px" y="0px" viewBox="-72.4 122.1 550 550"
	 enable-background="new -72.4 122.1 550 550" xml:space="preserve">
<g id="layer1" transform="translate(-117.14286,-146.6479)" display="none">
</g>
<g id="layer2" transform="translate(-117.14286,-146.6479)">
	<path id="path3262" fill="#E6E6E6" d="M320.4,290.9c228.1,0,252.9,32.8,252.9,238.6c0,261.7-33.1,267.1-247.1,267.1
		c-238.5,0-260-27.4-260-255.7C66.1,328.8,90.6,290.9,320.4,290.9L320.4,290.9z"/>
	<path id="path6334" fill="#B9BDBE" d="M371,391.1c-3.1,0-5.6,2.6-5.6,5.7c0,3.1,2.5,5.7,5.6,5.7s5.6-2.6,5.6-5.7
		C376.6,393.7,374.1,391.1,371,391.1 M371,391.1c-3.1,0-5.6,2.6-5.6,5.7c0,3.1,2.5,5.7,5.6,5.7s5.6-2.6,5.6-5.7
		C376.6,393.7,374.1,391.1,371,391.1 M366.1,444.3h9.7v-37.1h-9.7V444.3z M361.8,407.2h-11.2l-13.1,16.4V393h-9.7v51.3h9.7v-17.8
		l13.1,17.8h11.8l-15.1-20L361.8,407.2z M311.5,444.3h9.7V393h-9.7V444.3z M296.5,422.2c-0.7-4.6-3.6-8.2-8.9-8.2
		c-5.2,0-8.3,3.6-9,8.2H296.5z M306.4,426.3c0,0.8,0,2.1-0.1,3h-27.6c0.5,4.7,4.7,7.8,9.9,7.8c3.8,0,7-1.2,9.7-3.5l4.9,6.8
		c-2.8,2.3-7.6,4.9-14.6,4.9c-11.8,0-19.7-7.8-19.7-19.4c0-11.4,8.2-20,19.2-20C299.5,405.9,306.4,413.5,306.4,426.3 M255.3,425.6
		c0-6-4.2-10.6-9.7-10.6c-5.5,0-9.7,4.6-9.7,10.6c0,6,4.2,10.6,9.7,10.6C251.2,436.2,255.3,431.6,255.3,425.6 M265.1,425.6
		c0,11.6-8,19.7-19.4,19.7c-11.4,0-19.4-8.2-19.4-19.9V393h9.7v18c2.4-2.6,6.2-5.1,11.5-5.1C258,405.9,265.1,413.8,265.1,425.6
		 M415.8,423.8v20.4H406l0-20.4c0-5.5-2.1-8.8-7.4-8.8c-5.3,0-7.4,3.3-7.4,8.8v20.4h-9.7v-20.4c0-11.4,5.7-18,17.2-18
		C410,405.8,415.8,412.3,415.8,423.8"/>
	<path id="rect3349" d="M250.5,519.3h16.9c1.7,0,3,1.4,3,3v79.8c0,1.7-1.4,3-3,3h-16.9c-1.7,0-3-1.4-3-3v-79.8
		C247.5,520.7,248.9,519.3,250.5,519.3z"/>
	<path id="rect4119" d="M374.2,527.3h15.4c1.7,0,3,1.4,3,3v62.4c0,1.7-1.4,3-3,3h-15.4c-1.7,0-3-1.4-3-3v-62.4
		C371.1,528.7,372.5,527.3,374.2,527.3z"/>
	<path id="rect4164" fill="none" d="M333,701.9h45c0.3,0,0.6,0.3,0.6,0.6l0,0c0,0.3-0.3,0.6-0.6,0.6h-45c-0.3,0-0.6-0.3-0.6-0.6l0,0
		C332.4,702.2,332.6,701.9,333,701.9z"/>
	<g id="g4185">
		<path id="rect4177" d="M298.5,670.6h45c1.7,0,3,1.4,3,3v26c0,1.7-1.4,3-3,3h-45c-1.7,0-3-1.4-3-3v-26
			C295.5,672,296.8,670.6,298.5,670.6z"/>
		<path id="path4183" d="M344.7,668.4c4.5,13.1-2.4,27.4-15.5,32s-27.4-2.4-32-15.5c-4.5-13.1,2.4-27.4,15.5-32
			c13-4.5,27.3,2.3,31.9,15.3"/>
	</g>
</g>
<g id="layer3" transform="translate(-117.14286,-146.6479)">
</g>
</svg>
