<?xml version="1.0" encoding="utf-8"?>
<!-- Generator: Adobe Illustrator 18.1.1, SVG Export Plug-In . SVG Version: 6.00 Build 0)  -->
<!DOCTYPE svg PUBLIC "-//W3C//DTD SVG 1.1//EN" "http://www.w3.org/Graphics/SVG/1.1/DTD/svg11.dtd">
<svg version="1.1" id="Layer_1" xmlns="http://www.w3.org/2000/svg" xmlns:xlink="http://www.w3.org/1999/xlink" x="0px" y="0px"
	 viewBox="694 -604 2000 2000" enable-background="new 694 -604 2000 2000" xml:space="preserve">
<g id="surface1">
	<path fill="#21759B" d="M1694-604C1142.6-604,694-155.4,694,396S1142.6,1396,1694,1396S2694,947.3,2694,396S2245.4-604,1694-604z
		 M794.9,396c0-130.4,27.9-254.1,77.9-365.9l428.8,1175C1001.8,1059.4,794.9,751.8,794.9,396z M1694,1295.1
		c-88.2,0-173.4-12.9-253.9-36.6l269.8-783.9l276.4,757.1c1.8,4.4,4,8.5,6.4,12.3C1899.1,1277.1,1798.8,1295.1,1694,1295.1z
		 M1817.9-25.6c54.1-2.8,102.9-8.5,102.9-8.5c48.4-5.8,42.8-76.9-5.8-74.1c0,0-145.6,11.4-239.6,11.4c-88.4,0-236.8-11.4-236.8-11.4
		c-48.4-2.9-54.1,71.2-5.7,74.1c0,0,45.9,5.7,94.3,8.5l140.1,383.9l-196.8,590.1L1143.2-25.6c54.2-2.8,102.9-8.5,102.9-8.5
		c48.3-5.8,42.8-76.9-5.8-74.1c0,0-145.6,11.4-239.7,11.4c-16.9,0-36.8-0.4-57.9-1.1C1103.6-342,1379.9-503.1,1694-503.1
		c234.1,0,447.2,89.4,607.2,236.1c-3.9-0.3-7.7-0.8-11.7-0.8c-88.3,0-151,76.9-151,159.6c0,74.1,42.8,136.8,88.3,210.9
		c34.2,59.8,74.2,136.8,74.2,248c0,76.9-29.6,166.2-68.4,290.6l-89.8,299.6L1817.9-25.6z M2482.9-35.3
		c70.2,128.1,110.1,275,110.1,431.3c0,331.8-179.8,621.2-447,777.2l274.6-794c51.2-128.2,68.4-230.8,68.4-321.9
		C2489,24,2486.9-6.7,2482.9-35.3z"/>
</g>
</svg>
