<?xml version="1.0" encoding="utf-8"?>
<!-- Generator: Adobe Illustrator 18.1.1, SVG Export Plug-In . SVG Version: 6.00 Build 0)  -->
<!DOCTYPE svg PUBLIC "-//W3C//DTD SVG 1.1//EN" "http://www.w3.org/Graphics/SVG/1.1/DTD/svg11.dtd">
<svg version="1.1" id="Layer_1" xmlns="http://www.w3.org/2000/svg" xmlns:xlink="http://www.w3.org/1999/xlink" x="0px" y="0px"
	 viewBox="694 -604 2000 2000" enable-background="new 694 -604 2000 2000" xml:space="preserve">
<g id="surface1">
	<path fill="#E5E5E5" d="M2327-521.9H1045.4c-153.1,0-277.2,124.1-277.2,277.2v1281.4c0,153.1,124.1,277.2,277.2,277.2h1281.5
		c153.1,0,277.2-124.1,292.9-272V-239.5C2604.2-397.8,2480.1-521.9,2327-521.9z"/>
	
		<linearGradient id="SVGID_1_" gradientUnits="userSpaceOnUse" x1="226.691" y1="6.0176" x2="174.9942" y2="-144.6718" gradientTransform="matrix(-4.6211 0 0 -4.6211 2282.4333 -763.8668)">
		<stop  offset="0" style="stop-color:#FFFFFF;stop-opacity:0.8314"/>
		<stop  offset="1" style="stop-color:#FFFFFF;stop-opacity:0"/>
	</linearGradient>
	<path fill="url(#SVGID_1_)" d="M2119.1-443.4h-865.9c-229.2,0-413.7,186-413.7,417.1v844.7c7.4,180.4,36,66.3,90.3-133.4
		c63.1-232.1,268.7-435,519.1-587.1c191.1-116.1,405-190.2,794.4-197.2C2464.1-103.3,2444.6-385.9,2119.1-443.4z"/>
	<path d="M1152.1-327.3h119.6l15.4,61.6l13,45.5l10.7,44.5l10.7,46.4l8.3,38.8h4.7l8.3-38.8l9.5-46.4l11.8-44.5l11.8-45.5l16.6-61.6
		h116L1385.3,42v262.3h-110.1V42L1152.1-327.3z"/>
	<path d="M1656.4-172c93.5,0,140.9,44.5,140.9,132.6v217.8c0,88.1-47.4,132.6-140.9,132.6s-140.9-44.5-140.9-132.6V-39.4
		C1515.5-127.5,1562.9-172,1656.4-172z M1656.4-96.2c-24.9,0-37.9,15.1-37.9,43.6v244.3c0,27.5,14.2,43.6,37.9,43.6
		s37.9-16.1,37.9-43.6V-52.6C1694.3-81.1,1680.1-96.2,1656.4-96.2z"/>
	<path d="M2090.8,304.4l-8.3-40.7c-42.6,35-67.5,47.4-97.1,47.4c-24.9,0-50.9-11.4-62.7-26.5c-13-16.1-16.6-33.1-16.6-81.4v-369.3
		h103v366.5c0,23.7,8.3,35,27.2,35c13,0,24.9-4.7,46.2-18.9v-382.6h103v470.7H2090.8z"/>
	
		<linearGradient id="SVGID_2_" gradientUnits="userSpaceOnUse" x1="1799.0895" y1="321.803" x2="1799.0895" y2="423.727" gradientTransform="matrix(7.8125 0 0 -7.8125 -12374.8281 3700.4375)">
		<stop  offset="0" style="stop-color:#932420"/>
		<stop  offset="1" style="stop-color:#CB322C"/>
	</linearGradient>
	<path fill="url(#SVGID_2_)" d="M1160.7,390.1h1039.6c153.1,0,277.2,124.2,277.2,277.3v241.7c0,153.1-124.1,277.2-277.2,277.2
		H1160.7c-153.1,0-277.2-124.1-277.2-277.2V667.4C883.5,514.3,1007.6,390.1,1160.7,390.1z"/>
	<path fill="#FFFFFF" d="M1126.3,571.6h-93.6v-74.9h291.6v74.9h-97.9V1071h-100.1V571.6z"/>
	<path fill="#FFFFFF" d="M1509.4,1071l-7.5-37c-38.7,31.9-61.3,43-88.2,43c-22.6,0-46.3-10.3-57-24.1c-11.8-14.6-15.1-30.1-15.1-74
		V643.1h93.6v333.2c0,21.5,7.5,31.9,24.8,31.9c11.8,0,22.6-4.3,42-17.2V643.1h93.6V1071L1509.4,1071L1509.4,1071z"/>
	<path fill="#FFFFFF" d="M1696.7,496.8h93.6v186.8c36.6-32.7,61.3-45.6,89.3-45.6c21.5,0,45.2,10.3,56,24.1
		c11.8,15.5,15.1,31,15.1,76.6v237.6c0,44.8-3.2,60.3-15.1,75.8c-10.8,14.6-34.4,25-57,25c-28,0-51.7-12.9-88.2-46.5v40.5h-93.6
		V496.8z M1832.2,1008.1c17.2,0,24.8-10.3,24.8-31.9V738.7c0-22.4-7.5-31.8-24.8-31.8c-11.8,0-22.6,4.3-42,17.2v266.9
		C1809.7,1003.8,1820.4,1008.1,1832.2,1008.1z"/>
	<path fill="#FFFFFF" d="M2304.7,921.2v15.5c1.1,11.2,1.1,18.9,1.1,23.2c0,75.8-46.3,117.1-131.3,117.1
		c-80.7,0-125.9-43-125.9-120.5V757.6c0-80.9,43-119.7,130.2-119.7c77.5,0,125.9,40.5,125.9,106.8v125.7h-162.5v93.8
		c0,31,9.7,43.9,34.4,43.9c11.8,0,22.6-5.2,28-12.9c5.4-7.8,6.5-17.2,6.5-48.2c0-7.8,0-13.8,0-25.8H2304.7z M2211,810.1v-72.3
		c0-19.8-12.9-31-34.4-31c-21.5,0-34.4,11.2-34.4,31v72.3H2211z"/>
</g>
</svg>
