<?xml version="1.0" encoding="utf-8"?>
<!-- Generator: Adobe Illustrator 18.1.1, SVG Export Plug-In . SVG Version: 6.00 Build 0)  -->
<!DOCTYPE svg PUBLIC "-//W3C//DTD SVG 1.1//EN" "http://www.w3.org/Graphics/SVG/1.1/DTD/svg11.dtd">
<svg version="1.1" id="Layer_1" xmlns="http://www.w3.org/2000/svg" xmlns:xlink="http://www.w3.org/1999/xlink" x="0px" y="0px"
	 viewBox="0 0 612 792" enable-background="new 0 0 612 792" xml:space="preserve">
<g id="surface1">
	<path fill="#34303D" d="M479.8,334.7c0,46.2,0,92.3,0,138.5c0,20.3-13.2,33.9-33.4,33.9c-93.2,0.1-186.4-0.1-279.7,0
		c-16.8,0-33.8-12.1-33.7-34.5c0.4-72.6,0.2-145.2,0.3-217.8c0-20,0-39.9,0-59.8c0.1-20.9,13.1-33.9,34-33.9
		c93.2-0.1,186.4-0.1,279.7-0.1c17.4,0,33,14.2,32.8,32.6C479.4,240.6,479.7,287.6,479.8,334.7C479.7,334.7,479.7,334.7,479.8,334.7
		z M147.8,467.1c-0.2,5.6-1.6,11.4,1.6,16.7c4.3,7,10.8,9.1,18.8,9.1c91.8-0.2,183.7-0.3,275.5-0.4c15.3,0,21.2-5.9,21.2-21
		c0.1-91.4,0.3-182.8,0.4-274.1c0-2,0.1-4,0-6c-0.6-8.9-7.1-15.7-15.9-16c-9.6-0.3-19.2-0.6-28.8,0.2c-0.4-0.2-0.8-0.2-1.2,0
		c-4.1-0.6-8.1-0.6-12.2,0c-1.6-0.1-3.1-0.2-4.7-0.2c-77.9-0.1-155.8,0-233.7-0.5c-13.9-0.1-21.8,8.1-21.7,21.7
		c0.5,56.4,0.3,112.8,0.4,169.2C147.5,399.5,147.7,433.3,147.8,467.1z"/>
	<path fill="#34303D" d="M198.3,594.2c0-9.9,0.1-19.7-0.1-29.5c-0.1-3.8,0.5-5.5,5-5.4c15.4,0.3,30.9,0.2,46.3,0.1
		c8.1,0,14.4,3.1,18,10.5c3.5,7.3,2.6,14.4-2.7,20.6c-1.9,2.2-1.6,3.3,0.2,5.4c6.1,6.6,7.1,14.4,3.3,22.4
		c-3.7,7.8-10.6,11.2-19.2,11.2c-15,0-30-0.2-45,0.1c-4.4,0.1-6.2-0.8-6-5.8C198.6,613.9,198.3,604.1,198.3,594.2z M230.4,621.8
		c6.7,0,13.4,0.1,20.1,0c7-0.2,12.5-5.7,12.4-12.3c0-6.5-5-12-11.9-12.1c-13-0.3-25.9,0-38.9-0.1c-4,0-5.8,1.9-5.9,5.7
		c-0.1,4.7,0.2,9.4-0.1,14.1c-0.2,3.7,0.8,5.1,4.8,5C217.4,621.6,223.9,621.8,230.4,621.8z M229.6,589.6L229.6,589.6
		c6.5,0,13,0.1,19.5,0c7.8-0.1,13-4.8,13-11.4c-0.1-6.5-5.4-11.1-13.2-11.2c-8.3-0.1-16.5-0.3-24.8-0.1c-5.7,0.1-13.3-2.5-16.7,1.2
		c-3.4,3.7-0.7,11.1-1,16.9c0,0.4,0.1,0.9,0,1.3c-0.4,3.1,1.1,3.5,3.9,3.4C216.6,589.4,223.1,589.6,229.6,589.6z"/>
	<path fill="#34303D" d="M342.7,594.7c0-10.3,0.2-20.6-0.1-30.9c-0.1-3.6,1.1-4.5,4.5-4.5c18.8,0.1,37.6,0.1,56.4,0
		c3.2,0,4.2,0.8,4.2,4.1c0,3.4-1.4,4.1-4.4,4.1c-15.9-0.1-31.8,0.1-47.7-0.1c-3.8-0.1-5.2,0.9-4.9,4.8c0.4,5.5-1.8,12.8,1,16.3
		c2.8,3.5,10.4,0.8,15.8,1c6.5,0.2,13,0.2,19.5,0c3.3-0.1,3.5,1.5,3.5,4.1c0,2.6-0.4,4.1-3.6,4.1c-9.4-0.2-18.8-0.1-28.2-0.1
		c-6.7,0-7.9,1.2-7.9,7.8c0,5.1-2.1,11.6,0.9,15c3.1,3.4,9.7,1.1,14.7,1.2c13,0.2,26,0.1,39,0c3.1,0,5,0.2,4.8,4.2
		c-0.2,3.5-1.6,3.8-4.5,3.8c-19.5-0.1-39-0.1-58.4,0.1c-3.6,0-4.6-1.1-4.5-4.6C342.8,614.9,342.7,604.8,342.7,594.7z"/>
	<path fill="#34303D" d="M535.3,602.3c5.1,6.6,9.7,12.5,14.5,18.4c0.8,1,2.1,1.8,3.3,2.1c5.3,1.4,5.3,1.3,8,5
		c-6.9,4.6-12.8,3.9-18.1-2.7c-5.2-6.4-10.4-12.9-15.3-19.6c-2.1-2.8-4.4-3.9-7.9-3.8c-7.4,0.2-14.8,0.2-22.2,0
		c-5.1-0.1-7.5,2-7.3,7.2c0.2,5.4-0.1,10.8,0.1,16.1c0.1,3.1-0.9,4.3-4.2,4.4c-3.5,0.1-4-1.5-4-4.4c0.1-20.4,0.2-40.8-0.1-61.2
		c0-4.2,1.7-4.6,5.1-4.5c14.8,0.1,29.6,0,44.4,0.1c13.3,0.1,22.2,7,23.4,18.2C556.6,590.2,550,598.7,535.3,602.3z M513.3,594.6
		C513.3,594.6,513.3,594.6,513.3,594.6c6.7-0.1,13.4,0.1,20.1-0.1c8.4-0.2,14.4-5.9,14.7-13.5c0.2-7.7-6.1-14.1-14.7-14.2
		c-13-0.2-25.9,0-38.9-0.1c-3.2,0-4.3,0.9-4.2,4.1c0.2,6.7,0.2,13.4,0,20.1c-0.1,3.4,1,4,4.2,3.8C500.7,594.4,507,594.6,513.3,594.6
		z"/>
	<path fill="#34303D" d="M126.2,584.5c0,6.3,0.1,12.5,0,18.8c-0.1,11.2-5.4,19.4-15.6,23.7c-12.9,5.5-26.3,5.5-39.1-0.2
		c-9.9-4.3-15.1-12.3-15.2-23.3c-0.1-9.4,0-18.8,0-28.2c0-2.9,0.1-5.7-3-7.6c-3-1.7-2.5-5.3-1.2-7.1c1.8-2.6,4.5-0.3,6.4,1
		c4.1,2.7,5.8,6.6,5.7,11.4c-0.1,9.4-0.1,18.8,0.1,28.2c0.3,12.3,6.3,18.8,18.5,20.7c6,0.9,12.1,0.9,18.1-0.2
		c11.5-2,17.2-8.6,17.4-20.3c0.2-12.3,0-24.6,0-37c0-2.7-0.6-5.2,3.9-5.1c3.9,0.1,4.3,1.7,4.2,4.8
		C126.1,571,126.2,577.7,126.2,584.5z"/>
	<path fill="#C2C3C5" d="M407.1,175.5c4.1-0.6,8.1-0.6,12.2,0c0.4,0.7,0.8,0.7,1.2,0c9.6-0.8,19.2-0.5,28.8-0.2
		c8.9,0.3,15.3,7.1,15.9,16c0.1,2,0,4,0,6c-0.1,91.4-0.3,182.8-0.4,274.1c0,15.1-5.9,21-21.2,21c-91.8,0.1-183.7,0.2-275.5,0.4
		c-8,0-14.5-2.1-18.8-9.1c-3.2-5.2-1.8-11-1.6-16.7c2.1-2,1.4-4.7,1.1-7c-1.6-11.4,2.8-22.2,2.9-33.4c0-4,3.6-4.6,6.2-4.6
		c2.9,0,1.7,3.1,1.8,4.8c0.1,13.4,0,26.7,0.2,40.1c0,2.3-1,5,1.4,6.9c1.5,4.1,4.7,4.4,8.6,4.4c72.3,0,144.6,0.2,217,0.3
		c18.8,0,37.6,0.1,56.4,0.1c6.8,0,8.3-1.5,8.4-8.2c0.1-5.4,0-10.8,0-16.1c-0.1-85.3-0.2-170.6-0.3-255.9c0-4.4-0.4-8.1-5.2-9.6
		c-0.4-0.8-0.9-0.7-1.3,0c-7.6,0.7-15.2,0.8-22.8,0c-3.3-3.8-6.1-3.8-9.4,0c-3.1,0.7-6.3,0.7-9.4,0
		C401.7,183.6,405.3,179.8,407.1,175.5z"/>
	<path fill="#F7F6F6" d="M161.2,473.9c-2.4-1.9-1.4-4.5-1.4-6.9c-0.1-13.4,0-26.7-0.2-40.1c0-1.7,1.2-4.8-1.8-4.8
		c-2.6,0-6.2,0.6-6.2,4.6c0,11.2-4.4,22-2.9,33.4c0.3,2.2,1,4.9-1.1,7c-0.1-33.8-0.2-67.6-0.3-101.4c-0.1-56.4,0.1-112.8-0.4-169.2
		c-0.1-13.5,7.8-21.8,21.7-21.7c77.9,0.5,155.8,0.4,233.7,0.5c1.6,0,3.1,0.1,4.7,0.2c-1.8,4.3-5.5,8.1-4,13.4
		c-2.4,0.1-4.9,0.2-7.4,0.2c-73.2,0.1-146.5,0.2-219.7,0.4c-13.1,0-14.3-2.5-14.4,14.3C161.6,293.8,161.4,383.9,161.2,473.9z"/>
	<path fill="#F7F6F6" d="M420.6,175.5c-0.4,0.7-0.8,0.7-1.2,0C419.7,175.3,420.1,175.3,420.6,175.5z"/>
	<path fill="#34303D" d="M161.2,473.9c0.1-90,0.3-180.1,0.4-270.1c0-16.8,1.2-14.3,14.4-14.3c73.3-0.2,146.5-0.2,219.7-0.4
		c2.5,0,4.9-0.1,7.4-0.2c3.1,0.7,6.3,0.7,9.4,0c3.1,0,6.3,0,9.4,0c7.6,0.7,15.2,0.7,22.9,0c0.4,0,0.9,0,1.3,0
		c4.8,1.6,5.2,5.3,5.2,9.6c0,85.3,0.2,170.6,0.3,255.9c0,5.4,0.1,10.8,0,16.1c-0.1,6.7-1.6,8.2-8.4,8.2c-18.8,0-37.6-0.1-56.4-0.1
		c-72.3-0.1-144.6-0.3-217-0.3C165.9,478.4,162.8,478,161.2,473.9z M237.2,350c0.1-26.4,0.3-52.9,0.2-79.3c0-4,0.9-5.4,5.2-5.3
		c10.3,0.3,20.6,0.1,30.9,0.1c12.9,0,12.9,0,11.9-13.1c-0.6-7.8-5.1-12.6-12.8-12.8c-16.1-0.3-32.3-0.3-48.4,0
		c-8.1,0.1-12.5,4.8-12.5,13.2c0,32.9,0.2,65.9,0.3,98.8c-0.8,8.9-0.8,17.9,0.2,26.8c2.9,24.9,17.6,41.2,42,47
		c8.1,1.9,16.3,2.9,24.6,2.9c17.7-0.1,35.4-0.1,53.1-0.1c6.5,0,13-0.4,19.4-1.5c23.2-4,40.5-15,47-39c2-7.4,2.7-15,2.7-22.6
		c0.1-36.7,0.2-73.5,0.2-110.2c0-10.5-4.7-15.2-15.2-15.3c-15.7-0.1-31.4-0.1-47-0.1c-11.7,0-11.7,0-11.5,11.5
		c0.1,9.7,4.7,14.5,14.3,14.7c9,0.1,17.9,0.3,26.9-0.1c4.9-0.2,6.4,1,6.4,6.2c-0.2,32,0,64,0,96.1c0,2.2-0.1,4.5-0.3,6.7
		c-1.2,11.5-11.1,24.3-21.7,26.7c-6.9,1.6-14.1,2.4-21.2,2.3c-16.6-0.1-33.2-0.7-49.7,0.2c-9,0.5-17.2-1.1-25.3-4
		c-12.2-4.3-18.9-14-19.3-26.8C237.5,365.2,237.4,357.7,237.2,350z"/>
	<path fill="#F7F6F6" d="M422,188.9c-3.1,0-6.3,0-9.4,0C415.8,185.1,418.6,185.1,422,188.9z"/>
	<path fill="#F7F6F6" d="M446.1,188.8c-0.4,0-0.9,0-1.3,0C445.2,188.1,445.7,188.1,446.1,188.8z"/>
	<path fill="#C2C3C5" d="M237.2,350c0.2,7.6,0.3,15.2,0.5,22.8c0.4,12.9,7.1,22.6,19.3,26.8c8.1,2.9,16.3,4.4,25.3,4
		c16.5-0.9,33.1-0.3,49.7-0.2c7.2,0,14.3-0.8,21.2-2.3c10.6-2.4,20.5-15.2,21.7-26.7c0.2-2.2,0.3-4.5,0.3-6.7c0-32-0.2-64.1,0-96.1
		c0-5.2-1.4-6.4-6.4-6.2c-8.9,0.4-17.9,0.2-26.9,0.1c-9.6-0.1-14.2-5-14.3-14.7c-0.2-11.5-0.2-11.5,11.5-11.5c15.7,0,31.4,0,47,0.1
		c10.5,0.1,15.2,4.8,15.2,15.3c0,36.7,0,73.5-0.2,110.2c0,7.6-0.7,15.2-2.7,22.6c-6.5,24-23.8,35-47,39c-6.4,1.1-12.9,1.6-19.4,1.5
		c-17.7,0-35.4,0-53.1,0.1c-8.3,0-16.5-1-24.6-2.9c-24.5-5.8-39.1-22.1-42-47c-1-8.9-1.1-17.9-0.2-26.8c1.7,0.1,3.5-0.6,4-2
		c2.9-9.3,14.5-10.1,18-19.1c0.9,4.9,0.8,9.5,1,14.1C235.2,346.5,233.9,349.2,237.2,350z"/>
	<path fill="#F7F6F6" d="M237.2,350c-3.3-0.9-2-3.6-2.1-5.6c-0.2-4.6,0-9.2-1-14.1c-3.5,9-15.2,9.8-18,19.1c-0.4,1.4-2.2,2.1-4,2
		c-0.1-32.9-0.3-65.9-0.3-98.8c0-8.3,4.3-13,12.5-13.2c16.1-0.3,32.3-0.2,48.4,0c7.7,0.1,12.2,5,12.8,12.8c1,13.1,1,13.1-12,13.1
		c-10.3,0-20.6,0.2-30.9-0.1c-4.3-0.1-5.2,1.3-5.2,5.3C237.5,297.2,237.3,323.6,237.2,350z"/>
</g>
</svg>
