<?xml version="1.0" ?><!DOCTYPE svg  PUBLIC '-//W3C//DTD SVG 1.1//EN'  'http://www.w3.org/Graphics/SVG/1.1/DTD/svg11.dtd'><svg enable-background="new 0 0 512 512" id="Layer_1" version="1.1" viewBox="0 0 512 512" xml:space="preserve" xmlns="http://www.w3.org/2000/svg" xmlns:xlink="http://www.w3.org/1999/xlink"><g><path d="M204.9,68.5h-45.4v142.1l-61.7-61.7l-26.6,26.4l80.6,80.6l-80.6,80.4l26.6,26.4l61.7-61.7v142.3h45.2l93.8-93.8L204.7,256   l93.8-93.8L204.9,68.5z M245.6,349.8L197,398.1v-96.9L245.6,349.8z M197,210.6v-96.9l48.6,48.6L197,210.6z"/><path d="M385.8,123.4l-26.6,26.6c27.2,27.2,44.1,64.7,44.1,105.9s-16.9,78.8-44.1,105.9l26.6,26.6c33.9-33.9,54.9-80.8,54.9-132.6   S419.8,157.4,385.8,123.4z"/><path d="M332.8,176.5l-26.4,26.4c13.5,13.7,21.9,32.4,21.9,53.1c0,20.6-8.4,39.6-22.1,52.9l26.6,26.6c20.4-20.2,33-48.4,33-79.5   C365.8,224.9,353.2,196.8,332.8,176.5z"/></g></svg>