<?xml version="1.0" encoding="iso-8859-1"?><!-- Generator: Adobe Illustrator 16.0.0, SVG Export Plug-In . SVG Version: 6.00 Build 0) --><!DOCTYPE svg PUBLIC "-//W3C//DTD SVG 1.1//EN" "http://www.w3.org/Graphics/SVG/1.1/DTD/svg11.dtd"><svg version="1.1" id="svg2" xmlns:svg="http://www.w3.org/2000/svg" xmlns:cc="http://creativecommons.org/ns#" xmlns:dc="http://purl.org/dc/elements/1.1/" xmlns:rdf="http://www.w3.org/1999/02/22-rdf-syntax-ns#" xmlns="http://www.w3.org/2000/svg" xmlns:xlink="http://www.w3.org/1999/xlink" x="0px" y="0px" width="850px" height="387.924px" viewBox="25.001 25 850 387.924" style="enable-background:new 25.001 25 850 387.924;" xml:space="preserve"><g id="g10" transform="matrix(1.25,0,0,-1.25,-109.99987,1030.4238)"><g id="g3073" transform="matrix(4.7745164,0,0,4.7745164,-407.6474,-1864.6123)"><path id="path34" style="fill:#98A4AC;" d="M214.428,515.301c2.746-1.186,4.386-3.417,4.386-5.959	c0-3.367-2.566-5.374-6.866-5.374c-4.563,0-6.683,4.057-7.226,5.296l-0.668,1.535h-8.545l-0.014,0.008h-7.917	c-2.163-3.641-6.519-6.996-11.584-6.996c-9.14,0-13.701,7.207-14.284,14.323h37.355v1.56c0,2.95-0.304,5.727-0.872,8.305	c1.069-3.308,3.507-6.738,8.617-9.166C208.676,517.934,211.494,516.593,214.428,515.301 M175.461,537.912	c7.645,0,11.39-5.322,12.475-10.744h-25.444C163.819,532.601,168.536,537.912,175.461,537.912 M250.423,537.755v9.737h-7.941	v11.508h-9.75v-11.508h-19.637c-9.069-0.005-15.651-6.16-15.651-14.641c0-0.912,0.08-1.894,0.262-2.912	c-3.09,10.805-11.235,17.553-22.173,17.553c-13.38,0-23.609-10.514-24.466-24.758v3.028c0,11.983-9.661,21.73-21.534,21.73	c-11.873,0-21.534-9.747-21.534-21.73v-31.154h9.869v31.154c0,6.487,5.231,11.77,11.665,11.77c6.431,0,11.665-5.282,11.665-11.77	v-31.154h9.869v24.238C151.93,504.551,162.29,494,175.843,494c8.274,0,15.572,4.85,19.706,10.467	c3.084-6.652,9.111-10.467,16.555-10.467c8.628,0,17.361,5.562,17.361,16.197c0,6.365-3.663,11.566-10.315,14.65	c-0.851,0.392-1.537,0.719-2.194,1.034l-0.089,0.045c-0.745,0.355-1.463,0.696-2.354,1.107c-4.348,1.969-6.417,3.411-6.417,6.287	c0,2.53,2.243,4.435,5.012,4.435h19.624v-27.742c0-8.833,7.118-16.012,15.866-16.012v9.84c-3.372,0-6.116,2.769-6.116,6.172	v27.742C246.383,537.752,249.387,537.755,250.423,537.755"/></g></g></svg>